# xmcd
#
# Track frame offsets:
#	150
#	14710
#	31725
#	42727
#	55102
#	68867
#	80767
#	95057
#	109420
#	123745
#	136632
#	147595
#
# Disc length: 2161 seconds
#
# Revision: 1
# Processed by: cddbd v1.4PL0 Copyright (c) Steve Scherf et al.
# Submitted via: audiograbber 1.81.02
#
DISCID=b6086f0c
DTITLE=Paquita La Del Barrio - Al Cuarto Vaso
DYEAR=1900
DGENRE=
TTITLE0=Al 4° Vaso
TTITLE1=Como te Ves de Mal
TTITLE2=El Precio de tu Amor
TTITLE3=Copa Vacia
TTITLE4=Que Poco Hombre Eres
TTITLE5=El Rebelde
TTITLE6=Un Amor a Mi Medida
TTITLE7=Animas Que No Amanesca
TTITLE8=Mis Ojos Me Denuncian
TTITLE9=Paloma Sin Nido
TTITLE10=Amor Barato
TTITLE11=No Te Pases De Vivo
EXTD=
EXTT0=
EXTT1=
EXTT2=
EXTT3=
EXTT4=
EXTT5=
EXTT6=
EXTT7=
EXTT8=
EXTT9=
EXTT10=
EXTT11=
PLAYORDER=
